<?xml version="1.0" standalone="no"?><svg xmlns="http://www.w3.org/2000/svg" viewBox="0 0 1440 320"><path fill="#0099ff" fill-opacity="1" d="M0,288L30,277.3C60,267,120,245,180,234.7C240,224,300,224,360,192C420,160,480,96,540,112C600,128,660,224,720,261.3C780,299,840,277,900,245.3C960,213,1020,171,1080,144C1140,117,1200,107,1260,96C1320,85,1380,75,1410,69.3L1440,64L1440,0L1410,0C1380,0,1320,0,1260,0C1200,0,1140,0,1080,0C1020,0,960,0,900,0C840,0,780,0,720,0C660,0,600,0,540,0C480,0,420,0,360,0C300,0,240,0,180,0C120,0,60,0,30,0L0,0Z"></path></svg>